<?xml version="1.0" encoding="UTF-8" standalone="no"?>
<!-- Created with Inkscape (http://www.inkscape.org/) -->

<svg
   width="57.036312mm"
   height="11.519709mm"
   viewBox="0 0 57.036313 11.519709"
   version="1.1"
   id="svg1"
   sodipodi:docname="07-multiple-cutouts-and-shape2-in-1-path.svg"
   inkscape:version="1.3.2 (091e20e, 2023-11-25, custom)"
   xmlns:inkscape="http://www.inkscape.org/namespaces/inkscape"
   xmlns:sodipodi="http://sodipodi.sourceforge.net/DTD/sodipodi-0.dtd"
   xmlns="http://www.w3.org/2000/svg"
   xmlns:svg="http://www.w3.org/2000/svg">
  <sodipodi:namedview
     id="namedview1"
     pagecolor="#505050"
     bordercolor="#ffffff"
     borderopacity="1"
     inkscape:showpageshadow="0"
     inkscape:pageopacity="0"
     inkscape:pagecheckerboard="1"
     inkscape:deskcolor="#505050"
     inkscape:document-units="mm"
     inkscape:zoom="2.1219701"
     inkscape:cx="112.15992"
     inkscape:cy="4.4769718"
     inkscape:current-layer="svg1" />
  <defs
     id="defs1" />
  <path
     d="m 2.4019197,9.0061667 q -0.582909,0 -1.103808,-0.223242 -0.49609404,-0.229444 -0.72553804,-0.607715 -0.440282,-0.713135 -0.440282,-1.209229 0,-0.328662 0.186035,-0.824756 0.06821,-0.272851 0.297657,-0.415478 0.192236,-0.111621 0.37207,-0.111621 0.06201,0 0.11782204,0.0186 0.508496,0.117823 0.508496,0.675928 0,0.359668 -0.446484,0.489893 -0.19843804,0.04961 -0.23564604,0.155029 -0.0186,0.04961 -0.0186,0.124023 0,0.08682 0.02481,0.198438 0.07441,0.421679 0.34726504,0.644922 0.279053,0.217041 0.700733,0.378271 0.0248,0.0124 0.07441,0.0124 0.0186,0 0.334863,-0.111621 0.415478,-0.124023 0.799951,-0.310058 0.248047,-0.142627 0.353467,-0.390674 0.21084,-0.520898 0.21084,-2.294434 0,-0.855761 -0.02481,-1.730127 l -0.0062,-0.248046 q 0,-0.36587 0.03101,-0.644922 -0.217041,-0.719336 -1.016993,-0.725537 -0.03721,0 -0.06201,0.0062 -0.15503,0 -0.260449,-0.04341 -0.266651,-0.167432 -0.403077,-0.36587 -0.0186,-0.0248 -0.0186,-0.06201 0,-0.03101 0.0186,-0.08682 0.04961,-0.148828 0.167432,-0.229443 0.117822,-0.08061 0.359668,-0.08061 l 1.69292,0.03721 1.699121,-0.03721 q 0.09302,0 0.186035,0.0124 0.161231,0.03101 0.26665,0.167432 0.08682,0.124023 0.08682,0.217041 0,0.03721 -0.0186,0.06201 -0.136425,0.198438 -0.403076,0.36587 -0.10542,0.04341 -0.204638,0.04341 h -0.136426 q -0.818555,0 -1.016992,0.79375 -0.03101,0.142627 -0.03101,0.297656 l 0.0062,0.155029 q 0,0.409278 0.0186,0.812354 l 0.0124,0.74414 q 0,0.217041 -0.0062,0.434082 -0.0062,0.21084 -0.0062,0.440284 0,0.09922 0.0186,0.111621 0.204639,0.179834 0.254248,0.396875 0.04961,0.21084 0.04961,0.427881 v 0.03101 q 0,0.279053 0.09922,0.514698 0.05581,0.117822 0.05581,0.260449 0,0.155029 -0.08062,0.471289 -0.031,0.124023 -0.04961,0.235645 -0.0248,0.07441 -0.130225,0.124023 -0.09922,0.04341 -0.186035,0.04341 h -0.05581 q -0.167433,0 -0.31626,0.08062 -0.148828,0.07441 -0.303857,0.192237 -0.08682,0.07441 -0.186036,0.136425 -0.502295,0.334864 -0.899169,0.396875 -0.285254,0.04341 -0.558106,0.04341 z m 10.9512713,0.291455 q -0.47749,0 -0.89917,-0.297656 -0.24185,-0.167432 -0.46509,-0.173633 -0.21704,-0.0062 -0.24805,-0.0062 -0.39067,0 -0.632515,0.16123 -0.0186,0.02481 -0.06821,0.04341 -1.2526363,0.09922 -1.5316893,0.09922 -0.179834,0 -0.359668,-0.0186 -0.21084,-0.0248 -0.415478,-0.0248 h -0.04341 q -0.111621,0 -0.198437,-0.02481 -0.111621,-0.03721 -0.186035,-0.204639 -0.167432,-0.378271 -0.378272,-0.737939 -0.124023,-0.217041 -0.235644,-0.434082 -0.04961,-0.111621 -0.04961,-0.279053 0,-0.26665 0.08062,-0.465088 0.08062,-0.198437 0.210839,-0.248047 0.248047,-0.09302 0.434082,-0.272851 0.285254,-0.26665 0.558106,-0.297656 0.520898,-0.03101 0.731738,-0.179834 0.03721,-0.02481 0.21084,-0.111621 0.1364263,-0.08062 0.2790533,-0.09922 l 0.254248,-0.0062 0.47749,0.0124 q 0.26665,0 0.533302,-0.02481 0.13642,-0.0186 0.27285,-0.117822 0.14263,-0.09922 0.18603,-0.204639 0.0434,-0.111621 0.0434,-0.229443 0,-0.229443 -0.10542,-0.390674 -0.34726,-0.508496 -0.638716,-0.564306 -0.291455,-0.05581 -0.390674,-0.05581 -0.384472,0 -0.8061523,0.26665 -0.117822,0.08682 -0.21084,0.217041 -0.09302,0.130225 -0.204639,0.217041 l -0.07441,0.05581 q -0.390673,0.303857 -0.830957,0.465088 -0.06201,0.0124 -0.136425,0.0124 -0.217041,0 -0.582911,-0.167431 -0.03721,-0.0186 -0.04961,-0.167432 0,-0.136426 -0.04961,-0.21084 -0.04961,-0.07441 -0.04961,-0.130225 0,-0.06201 0.08682,-0.136425 0.03721,-0.03101 0.06201,-0.06201 0.186036,-0.229443 0.291455,-0.502295 0.06821,-0.179834 0.204639,-0.179834 0.05581,0 0.117822,0.0248 0.10542,0.04341 0.198438,0.04341 0.235644,0 0.396875,-0.248047 0.229443,-0.303857 0.781348,-0.303857 0.1984373,0 0.3720703,0.05581 0.409277,0.142627 0.830957,0.266651 1.24023,0.334863 1.35806,0.545703 0.0186,0.03721 0.0186,0.06201 v 0.0124 q -0.0186,0.07441 -0.0186,0.16123 0,0.15503 0.0868,0.520899 0.0682,0.248047 0.0682,0.359668 0,0.08061 -0.0558,0.08682 -0.0372,0.223242 -0.0372,0.905371 0,0.936377 0.36586,1.147217 0.30386,0.16123 0.59532,0.607715 0.12402,0.198437 0.27905,0.37207 0.0992,0.124023 0.0992,0.359668 0,0.229443 -0.14883,0.37207 -0.10542,0.09922 -0.20464,0.111621 -0.093,0.0124 -0.17983,0.0124 z M 9.6386877,7.7845357 q 0.09302,-0.0124 0.260449,-0.04961 l 0.09922,-0.0062 h 0.04961 l 0.08682,-0.0062 0.210841,-0.0062 q 0.589112,-0.0124 0.725537,-0.142627 0.21084,-0.204639 0.415476,-0.657324 0.0496,-0.117822 0.0496,-0.198438 0,-0.09922 -0.148825,-0.136425 -0.06821,-0.02481 -0.117822,-0.02481 -0.03721,0 -0.266651,0.05581 -0.496093,0.124024 -0.787548,0.124024 -0.2232433,0 -0.4526863,-0.06821 h -0.02481 q -0.05581,0 -0.136425,0.04961 -0.08062,0.04961 -0.124024,0.117823 -0.142627,0.272851 -0.260449,0.564306 l -0.09302,0.223242 q 0.359668,0.161229 0.483692,0.161229 z m 8.6940433,1.147217 q -0.41548,0 -0.82476,-0.15503 -0.0992,-0.03721 -0.20463,-0.05581 -0.29766,-0.04341 -0.45889,-0.167432 -1.42007,-1.041797 -1.42007,-2.666504 0,-0.806152 0.39688,-1.630908 0.47749,-0.787549 1.18442,-1.047998 0.71313,-0.26665 1.20303,-0.26665 1.51308,0 2.36884,1.531689 0.10542,0.167432 0.10542,0.328662 0,0.285254 -0.31005,0.551905 -0.31006,0.260449 -0.60152,0.260449 -0.21704,0 -0.40928,-0.142627 -0.34726,-0.241846 -0.37207,-0.372071 -0.0186,-0.136425 -0.0186,-0.173632 0,-0.204639 0.15503,-0.520899 0.0186,-0.04341 0.0186,-0.111621 0,-0.136426 -0.0496,-0.248047 -0.0496,-0.117822 -0.12402,-0.155029 -0.49609,-0.229443 -0.79995,-0.229443 -0.31006,0 -0.83716,0.229443 -0.28525,0.124023 -0.50229,0.434082 -0.29766,0.452686 -0.37827,0.892969 -0.0806,0.440283 -0.0806,0.855761 l 0.006,0.198438 q 0,0.111621 0.10542,0.384473 0.13022,0.186035 0.19843,0.384472 0.18604,0.372071 0.66353,0.63252 0.47749,0.254248 0.91777,0.254248 0.89297,-0.02481 1.49448,-0.694531 0.22325,-0.26045 0.5147,-0.26045 0.0992,0 0.21084,0.03101 0.39688,0.04961 0.39688,0.297656 0,0.124024 -0.11783,0.303858 -0.60771,0.812353 -1.70532,1.227832 -0.33486,0.09922 -0.72553,0.09922 z m 8.29097,2.4556643 q -0.24805,0 -0.4961,-0.02481 -0.19844,-0.02481 -0.39687,-0.02481 l -0.0868,0.0062 q -0.23564,0 -0.5085,-0.192236 -0.19843,-0.130224 -0.19843,-0.347265 0,-0.254249 0.38447,-0.390674 0.14883,-0.04341 0.28525,-0.04341 0.14883,0 0.29146,0.04961 0.22944,0.05581 0.39067,0.05581 0.60152,0 0.60152,-0.6573243 0,-0.03721 -0.0496,-0.260449 -0.12403,-0.47749 -0.12403,-0.601514 0,-0.05581 0.0248,-0.124023 0.031,-0.06201 0.031,-0.136426 0,-0.186035 -0.13642,-0.186035 -0.062,0 -0.14263,0.03721 l -0.50229,0.297656 q -0.86197,0.514697 -1.0108,0.514697 -0.14262,0 -0.21704,-0.04961 l -0.24804,-0.155029 q -0.58291,-0.334863 -1.0666,-0.781348 -0.45889,-0.465088 -0.65733,-1.091406 -0.16743,-0.638721 -0.20464,-1.32085 l -0.031,-0.328662 q 0,-0.136426 0.0558,-0.285254 0.031,-0.08062 0.0434,-0.16123 0.0186,-0.08062 0.0372,-0.161231 0.0682,-0.303857 0.11162,-0.607714 0.031,-0.192237 0.14263,-0.285254 0.11782,-0.09302 0.27285,-0.15503 0.45889,-0.204638 0.87437,-0.47749 0.31626,-0.21084 0.5643,-0.21084 h 0.031 q 0.34106,0 0.68213,-0.06821 l 0.26665,-0.03721 q 0.0744,-0.0124 0.13642,-0.04961 0.35967,-0.229443 0.63252,-0.229443 0.35347,0 0.73794,0.37207 0.093,0.08682 0.21704,0.130225 0.35347,0.124023 0.35347,0.434082 0,0.16123 -0.14883,0.514697 -0.13642,0.303857 -0.13642,0.520898 0,0.192237 0.0744,0.483692 0.17363,0.731738 0.17363,1.686718 -0.006,0.5271 -0.0372,1.047998 -0.0372,0.620118 -0.0372,1.240235 0.0186,0.347265 0.26045,0.545703 0.24805,0.2046393 0.60151,0.2294433 0.39688,0.02481 0.5147,0.496094 0.031,0.09302 0.031,0.186035 0,0.204639 -0.20464,0.347266 -0.28526,0.198437 -0.63872,0.198437 -0.0744,0 -0.16123,-0.0124 -0.14263,-0.0062 -0.29146,-0.0062 -0.29145,0 -0.58291,0.03101 -0.25425,0.0248 -0.50849,0.03721 z m -1.91617,-3.1377933 q 0.10542,0 0.22325,-0.06821 0.19223,-0.117822 0.40927,-0.130225 0.5085,0 0.88677,-0.489892 0.44648,-0.558106 0.44648,-1.159619 l -0.006,-0.148829 q -0.006,-0.396875 -0.062,-0.775146 -0.0496,-0.378272 -0.22944,-0.737939 -0.35967,-0.626319 -0.73174,-0.713135 -0.37207,-0.08682 -0.5333,-0.08682 -0.40308,0 -0.78755,0.229444 -0.093,0.06201 -0.16743,0.148828 -0.0496,0.05581 -0.11162,0.10542 -0.60772,0.489892 -0.80615,1.227832 -0.0248,0.130224 -0.0248,0.26665 0,0.06821 0.006,0.148828 0.0124,0.08062 0.0124,0.173633 l -0.0744,0.0186 0.0806,0.26665 q 0.11162,0.291455 0.14882,0.595312 0.0248,0.204639 0.13023,0.322461 0.10542,0.117823 0.24805,0.21084 l 0.19223,0.136426 q 0.22944,0.148828 0.44028,0.31626 0.16744,0.142627 0.31006,0.142627 z m 9.55601,1.240234 q -0.41548,0 -0.55811,-0.21084 -0.17983,-0.26665 -0.39067,-0.31626 -0.21084,-0.04961 -0.40928,-0.04961 l -0.13022,0.0062 q -0.65733,0 -1.0542,-0.310058 -0.39688,-0.31626 -0.67593,-0.775147 -0.18603,-0.303857 -0.21704,-0.576709 -0.0248,-0.272851 -0.0248,-0.502295 l 0.006,-0.229443 q 0,-0.5271 -0.12403,-1.0604 -0.0434,-0.217041 -0.0744,-0.427881 -0.0186,-0.04961 -0.031,-0.04961 -0.0682,-0.179834 -0.17983,-0.310058 -0.10542,-0.130225 -0.18604,-0.291455 -0.19843,-0.0062 -0.29145,-0.130225 -0.0868,-0.124023 -0.23565,-0.198437 -0.22944,-0.117823 -0.23564,-0.229444 0,-0.111621 0,-0.117822 0,-0.204639 0.18603,-0.396875 0.0682,-0.05581 0.22945,-0.05581 0.16743,0 0.34726,0.03101 0.17984,0.03101 0.53951,0.03101 0.28525,0 0.52089,0.173633 0.26045,0.198437 0.27286,0.5271 0.006,0.5333 0.0682,1.066601 0.0496,0.465088 0.0496,0.644922 l -0.006,0.155029 q -0.0124,0.10542 -0.0124,0.21084 0.0372,1.016992 0.0868,1.469678 0.031,0.272851 0.15503,0.359668 0.12402,0.08682 0.32866,0.08682 l 0.10542,-0.0062 q 0.0558,0 0.11162,0.0186 0.17364,0.04961 0.33487,0.04961 0.45888,0 0.76274,-0.427881 l 0.0868,-0.124023 q 0.38447,-0.496094 0.62632,-1.091407 0.0558,-0.148828 0.0558,-0.254248 0,-0.16123 -0.093,-0.37207 -0.0558,-0.192236 -0.0558,-0.452685 0,-0.117823 0.031,-0.241846 -0.0744,-0.179834 -0.0744,-0.365869 -0.12402,-0.322461 -0.25425,-0.719336 -0.006,-0.02481 -0.062,-0.04961 -0.0496,-0.0248 -0.0744,-0.04961 v -0.03721 q 0,-0.489893 0.16123,-0.508496 0.0248,0 0.0434,-0.0186 0.34727,-0.316259 0.75655,-0.316259 0.27285,0 0.57051,0.136425 0.34106,0.173633 0.39687,0.372071 0.062,0.192236 0.062,0.279052 0,0.21084 -0.14883,0.42168 -0.13022,0.167432 -0.13022,0.279053 0,0.10542 -0.0372,0.229443 -0.0372,0.117822 -0.0372,0.310059 0,0.254248 0,0.489892 0.006,0.229444 0.006,0.489893 0,0.192236 0.0992,0.396875 0.0496,0.09922 0.0496,0.21084 0,0.06821 -0.0558,0.359668 -0.0558,0.254248 -0.0744,0.508496 0.006,0.117822 0.0868,0.235644 0.0558,0.09302 0.0868,0.186035 0.0682,0.241846 0.16743,0.266651 0.10542,0.02481 0.16123,0.02481 0.11163,0 0.24185,-0.04961 0.19224,-0.06821 0.32866,-0.06821 0.10542,0 0.17364,0.04341 0.11162,0.06821 0.11162,0.229443 0,0.06201 -0.0124,0.130224 -0.0558,0.266651 -0.22944,0.297657 -0.17363,0.03101 -0.5147,0.03101 -0.22944,0 -0.5395,0.09302 -0.18603,0.04341 -0.35347,0.117822 -0.16743,0.07441 -0.31005,0.248047 -0.14263,0.173633 -0.5147,0.173633 z m 7.50962,-4.055566 0.0682,-0.341065 q 0.0124,-0.05581 0.0124,-0.117822 0,-0.124023 -0.0558,-0.260449 -0.17983,-0.396875 -0.45888,-0.396875 -0.15503,0 -0.32246,0.04341 -0.16124,0.04341 -0.35967,0.08062 -0.20464,0.06201 -0.39688,0.06201 -0.10542,0 -0.21084,-0.0186 -0.21704,-0.06821 -0.37207,-0.06821 -0.28525,0 -0.58911,0.303857 -0.14883,0.142627 -0.15503,0.223242 0,0.07441 0,0.08062 0,0.136426 0.062,0.266651 0.0682,0.124023 0.11162,0.130224 0.0434,0.0062 0.0744,0.0062 0.0496,0 0.11782,-0.0124 0.0682,-0.0186 0.35967,-0.03101 0.22324,-0.0248 0.45889,-0.03101 0.11162,0 0.21704,0.0186 0.10542,0.0124 0.21084,0.0124 0.15503,-0.0062 0.32246,-0.0248 0.22324,-0.02481 0.45888,-0.02481 0.19224,0.0124 0.37828,0.07441 z m -1.38906,3.578076 q -0.91778,0 -1.51929,-0.508496 -0.71314,-0.812354 -0.90537,-1.525488 -0.0372,-0.124024 -0.11162,-0.241846 -0.0744,-0.124024 -0.0744,-0.254248 0,-0.06821 0.0186,-0.136426 0,-0.303857 0.0248,-0.613916 0.0434,-0.533301 0.49609,-1.358057 0.16123,-0.291455 0.44649,-0.539502 l 0.16123,-0.148828 q 0.27905,-0.291455 0.68833,-0.458886 0.45889,-0.173633 0.70073,-0.179834 0.24185,-0.0124 0.27905,-0.0124 0.42168,0 0.84336,0.217041 0.14263,0.07441 0.29766,0.09922 0.29766,0.06201 0.45269,0.167432 0.11782,0.10542 0.24184,0.192236 0.37827,0.272852 0.65733,0.607715 0.19223,0.328662 0.19223,1.085205 0.0186,0 0.0186,0.08682 0,0.322461 -0.16124,0.551905 -0.39067,0.421679 -0.99218,0.421679 -0.21084,0 -0.30386,-0.07441 -0.19224,-0.198437 -0.36587,-0.217041 -0.16743,-0.0248 -0.29145,-0.0248 -0.13023,0 -0.26665,0.0186 -0.34107,0.02481 -0.68833,0.02481 -0.13023,0 -1.017,-0.03101 -0.11162,0 -0.22944,0.03101 -0.11162,0.0248 -0.20464,0.179834 -0.0744,0.117822 -0.0744,0.229443 0,0.155029 0.12402,0.303857 0.0682,0.148829 0.12402,0.291456 0.0682,0.192236 0.16744,0.353466 0.13642,0.192237 0.35346,0.334864 0.44029,0.322461 0.67593,0.322461 h 0.27905 q 0.47749,0 0.88677,-0.26045 0.17983,-0.16123 0.29146,-0.396875 l 0.12402,-0.217041 q 0.27285,-0.365869 0.66352,-0.365869 0.42168,0 0.66353,0.434082 0.0434,0.09302 0.0434,0.241846 0,0.10542 -0.0558,0.173633 -0.29766,0.359668 -0.68833,0.607715 -0.92398,0.589111 -1.96577,0.589111 z m 7.9437,-0.204639 q -0.26045,0 -0.5333,-0.03721 -0.0992,-0.0124 -0.20464,-0.0186 -0.26665,-0.0248 -0.5395,-0.06201 -0.58912,-0.08062 -0.86197,-0.08062 -0.17363,0 -0.35346,0.03721 -0.23565,0.04341 -0.30386,0.04341 -0.26665,0 -0.27285,-0.297656 v -0.713137 h 0.006 v -0.744141 q 0.0124,-0.26665 0.29765,-0.297656 0.13023,-0.0186 0.24805,-0.0186 0.63872,0 0.89297,0.508496 0.26045,0.489892 0.75654,0.669726 0.4961,0.179834 0.83096,0.179834 0.17983,0 0.34727,-0.04341 0.37827,-0.09922 0.5643,-0.303857 0.22324,-0.254248 0.22324,-0.688331 0,-0.378271 -0.40307,-0.471289 -1.48208,-0.303857 -2.49907,-0.471289 -0.65733,-0.136425 -0.92398,-0.570507 -0.26045,-0.434082 -0.26045,-0.750342 0,-0.254248 0.11782,-0.514697 0.27906,-0.576709 0.92398,-0.837159 0.77515,-0.279052 1.5813,-0.279052 0.19844,0 0.40307,0.0186 l 0.0992,0.0062 q 0.0992,0 0.19224,0.0186 0.46509,0.142627 0.76274,0.142627 0.17984,0 0.35967,-0.03721 l 0.0992,-0.0124 q 0.31626,0 0.34106,0.409278 0.0372,0.589111 0.0496,1.178222 0,0.136426 -0.11782,0.223243 -0.11782,0.08062 -0.25425,0.08062 -0.0868,0 -0.17363,-0.03101 -0.22944,-0.08061 -0.33486,-0.303857 0,-0.0124 -0.006,-0.0186 -0.0434,-0.117822 -0.0992,-0.155029 l -0.32866,-0.192237 q -1.0294,-0.626318 -1.33946,-0.626318 -0.11782,0 -0.23564,0.04341 -0.24805,0.08682 -0.44029,0.266651 -0.21084,0.198437 -0.23564,0.359668 -0.0186,0.155029 -0.0186,0.217041 0,0.403076 0.27285,0.58291 0.13022,0.09302 0.25425,0.10542 0.5271,0.03721 1.0542,0.03721 0.37207,0 0.74414,0.0186 0.68833,0.0124 1.0976,0.378272 0.16743,0.192236 0.24185,0.47749 l 0.0558,0.148828 q 0.0434,0.136426 0.0682,0.272852 l 0.0434,0.186035 q 0.062,0.235644 0.062,0.465088 0,0.452685 -0.26665,0.992187 -0.093,0.173633 -0.34726,0.235645 -1.0604,0.272851 -1.63711,0.272851 z m 6.9205,0.334863 q -0.26044,0 -0.52089,-0.130224 l -0.17364,-0.06201 q -0.74414,-0.241846 -0.74414,-0.942578 0,-0.440283 0.33487,-0.824756 0.21084,-0.26665 0.39067,-0.415478 0.17983,-0.148828 0.45269,-0.161231 h 0.20463 l 0.42168,0.0062 0.16123,0.0062 q 0.17364,0.0124 0.31006,0.06821 0.26665,0.08682 0.39688,0.235645 0.13642,0.148828 0.27285,0.446484 0.14883,0.322461 0.14883,0.570508 0,0.136426 -0.0868,0.31626 -0.0992,0.21084 -0.24805,0.390674 -0.30385,0.37207 -1.32085,0.496093 z m 0.19844,-4.663281 q -0.28525,0 -0.5147,-0.21084 -0.17983,-0.155029 -0.21083,-0.353466 -0.0868,-0.638721 -0.0868,-1.178223 0,-0.799951 -0.0806,-1.27124 -0.0248,-0.142627 -0.0248,-0.272852 0,-0.136426 0.0372,-0.32866204 0.0372,-0.192236 0.13022,-0.440283 0.0372,-0.09302 0.14263,-0.173633 0.11162,-0.08061 0.21704,-0.09922 0.16123,-0.0186 0.32246,-0.0186 0.26665,0 0.5271,0.04961 0.19224,0.04961 0.28525,0.266651 0.062,0.142627 0.062,0.291455 0,0.06821 -0.0124,0.136425 -0.29145,1.28984404 -0.29145,2.61069404 0,0.142627 0.0124,0.229443 0.0186,0.08682 0.0186,0.179834 -0.0248,0.58291 -0.5333,0.58291 z"
     id="TextA"
     style="font-size:12.7px;font-family:'X Typewriter';-inkscape-font-specification:'X Typewriter';text-align:center;text-anchor:middle;fill-rule:evenodd;stroke:#ffffff;stroke-width:0.264583;stroke-miterlimit:80;stroke-dasharray:none;stroke-opacity:1;paint-order:markers fill stroke;fill:#000000;fill-opacity:1" />
</svg>
